<?xml version="1.0" standalone="no"?>
<!DOCTYPE svg PUBLIC "-//W3C//DTD SVG 20010904//EN"
 "http://www.w3.org/TR/2001/REC-SVG-20010904/DTD/svg10.dtd">
<svg version="1.0" xmlns="http://www.w3.org/2000/svg"
 width="2368.000000pt" height="1792.000000pt" viewBox="0 0 2368.000000 1792.000000"
 preserveAspectRatio="xMidYMid meet">

<g transform="translate(0.000000,1792.000000) scale(0.100000,-0.100000)"
fill="#8b9477" stroke="none">
<path d="M11900 17881 c-73 -44 -221 -175 -302 -266 -206 -234 -381 -565 -507
-963 -81 -252 -131 -489 -173 -817 -14 -110 -18 -571 -5 -700 l7 -81 -78 -104
c-152 -206 -289 -441 -388 -663 -26 -60 -53 -111 -59 -114 -7 -2 -30 8 -51 22
-22 15 -82 51 -134 81 -52 29 -133 78 -180 109 -47 30 -101 63 -120 74 -19 11
-48 31 -64 44 l-30 24 42 154 c89 330 115 514 115 829 0 438 -69 752 -240
1099 -123 249 -300 461 -508 606 -183 128 -264 155 -354 119 -108 -43 -158
-239 -168 -651 -18 -708 154 -1296 516 -1768 49 -64 346 -368 395 -404 l28
-21 -35 -73 c-20 -40 -73 -135 -118 -212 -206 -351 -317 -651 -404 -1089 -65
-330 -95 -587 -95 -818 0 -86 -4 -128 -11 -128 -6 0 -93 78 -192 173 -100 95
-219 203 -264 241 -54 43 -83 75 -83 88 0 11 9 54 20 96 90 356 144 941 121
1323 -20 340 -69 588 -177 900 -85 245 -317 673 -401 739 -43 34 -69 26 -134
-40 -121 -124 -224 -336 -274 -565 -10 -44 -19 -82 -21 -84 -1 -1 -45 37 -96
87 -122 117 -232 205 -387 309 -217 146 -556 298 -710 319 -114 15 -131 -11
-131 -193 0 -251 69 -533 227 -933 209 -530 477 -932 878 -1321 222 -215 397
-354 700 -557 110 -74 208 -142 218 -151 16 -16 14 -23 -49 -151 -107 -217
-169 -265 -388 -302 -79 -14 -454 -17 -528 -5 l-46 8 -22 72 c-141 475 -259
751 -433 1015 -326 494 -771 809 -1328 942 -170 40 -382 72 -449 67 -119 -8
-195 -69 -207 -164 -11 -98 82 -402 178 -582 97 -181 297 -454 463 -631 373
-399 968 -703 1606 -821 36 -6 71 -17 78 -24 16 -14 65 -217 93 -385 44 -264
153 -615 291 -939 l40 -95 -36 -120 c-47 -158 -83 -343 -96 -486 -14 -160 -12
-533 4 -665 8 -68 10 -114 4 -120 -12 -14 -285 82 -479 168 l-55 25 -2 349
c-1 191 -7 403 -12 469 -26 309 -178 727 -369 1017 -182 277 -489 577 -686
672 -117 57 -149 62 -180 31 -22 -22 -70 -158 -94 -268 -23 -103 -33 -333 -22
-496 31 -459 141 -797 374 -1151 72 -108 117 -163 221 -267 72 -72 154 -149
181 -171 76 -61 250 -173 348 -223 l88 -45 -6 -49 c-10 -81 -77 -188 -128
-205 -38 -14 -353 -14 -472 -1 -122 14 -328 46 -450 71 -140 29 -229 61 -375
134 l-126 63 -12 136 c-16 174 -33 273 -83 476 -97 391 -221 697 -415 1027
-184 311 -449 600 -744 809 -186 132 -233 153 -280 129 -17 -9 -33 -28 -39
-47 -45 -141 -64 -511 -38 -739 44 -370 186 -735 429 -1096 26 -40 48 -77 48
-83 0 -6 -25 -10 -60 -10 -126 0 -377 -48 -549 -106 -228 -76 -444 -217 -645
-422 -56 -57 -58 -61 -52 -99 6 -31 15 -43 49 -65 50 -31 258 -111 342 -132
205 -51 493 -69 695 -42 234 31 490 106 675 197 66 33 142 66 169 74 101 30
199 12 318 -59 l70 -41 -6 -220 c-5 -201 -30 -432 -48 -450 -4 -4 -64 -15
-135 -26 -325 -48 -651 -156 -983 -325 -334 -170 -532 -314 -805 -588 -266
-267 -388 -464 -410 -662 -11 -91 5 -131 64 -157 42 -19 64 -21 241 -21 213 0
314 11 520 56 428 92 761 278 1085 603 192 192 303 354 403 588 36 83 113 322
124 382 2 12 15 22 38 28 19 5 195 10 390 12 764 7 1095 -41 1167 -168 13 -23
15 -116 4 -157 -6 -23 -14 -25 -156 -46 -286 -43 -545 -108 -665 -169 -187
-94 -300 -303 -356 -655 -25 -159 -30 -602 -10 -797 22 -206 69 -363 134 -443
29 -36 81 -31 135 13 52 43 248 234 308 302 186 207 360 480 462 725 92 220
201 590 237 805 6 39 13 80 15 91 4 19 16 23 97 33 357 46 755 35 1113 -30
393 -71 651 -149 964 -291 205 -92 253 -117 400 -206 737 -444 1181 -1051
1417 -1937 88 -331 120 -590 155 -1245 26 -501 3 -1346 -52 -1855 -73 -685
-207 -1237 -377 -1555 -193 -361 -536 -616 -907 -675 -51 -8 -281 -21 -525
-30 -239 -9 -520 -19 -625 -23 -252 -9 -1904 -9 -2265 1 -269 7 -671 10 -3235
22 -1271 6 -2218 13 -2628 20 -341 6 -356 3 -357 -66 0 -46 27 -59 131 -64
128 -6 1994 -18 4769 -31 729 -3 1343 -8 1365 -10 22 -2 504 -5 1070 -6 924
-2 1190 1 1545 17 58 3 240 10 405 15 165 6 316 13 335 16 397 56 740 279 969
629 155 236 283 603 366 1055 54 292 106 698 120 940 3 58 8 119 10 135 2 17
7 95 10 175 3 80 7 181 10 225 25 426 8 1162 -36 1620 -57 592 -213 1133 -454
1576 -295 540 -747 965 -1385 1301 -268 141 -702 290 -1040 358 -372 74 -857
97 -1217 60 -49 -5 -93 -10 -99 -10 -7 0 -11 30 -10 88 1 72 -3 95 -22 134
-60 121 -222 193 -492 218 -63 6 -134 12 -156 14 -23 3 -158 10 -300 17 -238
12 -435 8 -714 -14 -29 -2 -28 -8 -4 128 8 50 18 172 21 273 3 104 10 182 15
182 5 0 73 -27 151 -59 176 -74 284 -105 455 -131 425 -65 752 -73 873 -22 25
11 60 37 78 57 38 44 98 162 107 213 8 41 0 43 197 -32 162 -62 344 -115 423
-123 48 -5 53 -4 69 21 17 25 17 38 5 179 -19 216 -17 620 3 783 19 152 55
327 72 350 10 14 20 1 69 -81 86 -144 216 -310 379 -485 l144 -156 -34 -73
c-18 -41 -63 -126 -100 -189 -79 -136 -83 -163 -35 -262 73 -153 344 -425 668
-673 143 -108 513 -327 774 -458 620 -310 1214 -493 1717 -530 445 -33 768 44
1040 247 84 63 249 223 326 316 44 53 50 56 73 48 51 -20 295 -60 431 -71 416
-34 805 69 1098 290 98 74 262 239 338 340 77 104 187 309 187 350 0 56 -108
98 -321 125 -533 70 -984 -70 -1418 -439 -103 -86 -253 -243 -336 -348 -40
-50 -67 -76 -81 -76 -76 -2 -388 158 -521 267 -24 19 -43 38 -43 42 0 3 55 28
122 55 158 62 229 95 324 151 265 157 611 520 789 828 268 467 414 900 486
1446 17 123 17 501 1 605 -27 171 -57 258 -106 304 -36 34 -87 24 -223 -43
-143 -72 -299 -192 -471 -364 -180 -182 -321 -374 -491 -669 -23 -40 -45 -73
-49 -73 -4 0 -34 55 -67 122 -108 219 -270 434 -365 483 -56 29 -96 0 -197
-140 -200 -278 -309 -561 -378 -980 -55 -332 -55 -635 -1 -910 48 -236 144
-463 271 -640 35 -49 61 -92 57 -96 -17 -15 -159 -31 -317 -36 -307 -10 -567
44 -832 173 -213 104 -377 242 -552 466 -11 15 -9 21 20 44 65 52 187 182 229
244 159 234 241 554 241 941 -1 313 -53 582 -166 846 -92 216 -207 385 -368
540 -95 91 -135 115 -166 96 -35 -21 -109 -126 -158 -225 -88 -173 -154 -406
-200 -698 -26 -166 -26 -629 0 -785 49 -293 152 -582 300 -839 31 -54 57 -102
57 -106 0 -14 -136 -69 -200 -81 -103 -19 -331 -14 -431 10 -249 59 -468 185
-706 405 l-61 56 33 78 c131 311 200 705 188 1081 -4 158 -26 306 -73 494 -36
146 -47 175 -71 187 -23 13 -45 4 -149 -60 -117 -73 -205 -147 -340 -286 -129
-134 -184 -204 -272 -347 -33 -54 -64 -95 -69 -90 -13 13 -136 336 -174 459
-59 188 -159 625 -167 728 l-3 40 270 1 c255 1 276 3 376 27 59 15 125 36 148
48 92 46 166 140 256 320 26 52 49 97 50 99 4 4 207 -171 288 -248 86 -82 195
-214 260 -314 60 -92 73 -103 110 -93 53 14 51 1 58 358 10 459 51 775 149
1131 99 359 208 615 369 861 26 40 62 102 81 139 19 37 39 67 43 67 4 0 47
-28 95 -62 91 -65 206 -136 377 -232 55 -30 106 -59 113 -64 11 -7 9 -24 -7
-90 -81 -315 -92 -689 -30 -1008 86 -447 347 -848 720 -1104 91 -63 280 -160
310 -160 41 0 74 75 108 245 69 347 48 769 -54 1080 -67 207 -202 445 -347
615 -88 103 -247 248 -383 350 -62 47 -122 90 -132 96 -17 11 -16 16 16 95 51
125 133 294 186 384 69 118 179 285 188 285 12 0 22 -34 67 -225 90 -385 175
-589 393 -945 38 -63 153 -213 230 -300 410 -467 1074 -734 1827 -733 369 0
768 76 1015 193 82 39 218 122 270 165 64 52 67 82 15 150 -121 157 -406 341
-658 424 -312 103 -737 118 -1197 42 -60 -10 -113 -16 -117 -14 -4 2 1 26 12
53 72 184 135 562 145 873 l4 142 58 34 c176 102 237 141 321 203 52 38 95 68
97 66 1 -2 18 -35 38 -73 111 -222 295 -418 522 -555 232 -140 505 -185 800
-131 122 22 267 62 318 88 16 8 31 12 34 9 3 -2 9 -42 14 -88 25 -220 98 -534
194 -828 76 -233 145 -469 145 -496 0 -13 -33 -42 -102 -89 -113 -78 -234
-194 -343 -330 -98 -122 -146 -198 -215 -340 -78 -161 -124 -303 -154 -476
-61 -346 -57 -564 14 -864 64 -272 180 -515 245 -515 25 0 202 145 315 259
134 134 216 244 293 391 171 325 243 698 217 1120 -13 213 -28 326 -76 571
-19 96 -34 179 -34 183 0 4 35 23 78 42 104 48 517 214 531 214 6 0 11 -8 11
-17 1 -82 87 -304 159 -413 110 -165 295 -304 431 -326 22 -4 40 -12 40 -18 0
-6 -11 -67 -25 -137 -42 -216 -56 -363 -62 -639 -6 -291 5 -487 38 -690 34
-205 159 -610 196 -638 10 -7 34 -12 53 -10 43 4 53 23 106 187 41 130 128
319 228 496 206 363 482 632 826 805 165 83 305 126 513 155 l47 7 0 -98 c0
-55 -7 -126 -15 -159 -8 -33 -59 -159 -113 -280 -142 -316 -126 -291 -197
-305 -171 -34 -431 -147 -542 -236 -138 -110 -227 -217 -265 -316 -32 -85 -17
-150 46 -206 63 -55 188 -56 303 -2 74 34 165 99 157 112 -3 4 1 5 9 3 16 -7
201 181 270 274 27 36 76 109 109 163 33 54 68 103 78 108 10 6 90 22 177 37
209 35 505 37 708 5 238 -38 479 -106 647 -183 l67 -31 -50 -75 c-178 -263
-564 -471 -1089 -587 -333 -73 -819 -86 -1145 -30 -49 9 -140 17 -202 18 -141
1 -148 -4 -147 -102 2 -126 83 -343 183 -491 61 -89 234 -258 363 -354 123
-92 320 -223 395 -262 26 -14 48 -27 50 -29 2 -2 -14 -24 -35 -50 -83 -101
-173 -296 -189 -412 -6 -45 -6 -46 -37 -40 -99 20 -317 36 -504 36 -302 0
-476 -14 -1044 -86 -76 -10 -140 -15 -143 -12 -3 3 4 48 15 99 67 294 106 636
96 822 -17 319 -82 568 -218 842 -43 85 -227 339 -254 349 -54 21 -95 -5 -176
-110 -246 -318 -413 -687 -538 -1182 -59 -236 -72 -336 -77 -608 -5 -232 -1
-309 24 -481 l6 -43 -154 0 c-288 0 -592 -27 -799 -71 -549 -118 -1023 -342
-1410 -667 -331 -278 -630 -695 -803 -1117 -132 -324 -236 -727 -286 -1105
-98 -742 -118 -1795 -47 -2470 3 -25 8 -72 10 -105 66 -725 160 -1143 336
-1500 160 -323 384 -555 665 -689 143 -69 395 -139 600 -167 71 -10 1154 -14
5063 -16 4599 -3 4973 -2 4979 13 3 9 -1 28 -9 42 l-16 26 -3743 0 c-2059 0
-3757 -3 -3774 -7 -47 -10 -1276 -16 -1500 -6 -489 20 -893 58 -1148 110 -179
36 -274 66 -382 119 -426 211 -684 608 -829 1275 -37 170 -51 272 -86 595 -17
157 -32 305 -35 330 -28 255 -48 802 -41 1120 28 1271 158 1988 472 2601 183
357 474 710 774 940 25 18 50 37 55 41 63 49 303 191 390 232 509 241 895 329
1501 343 291 7 254 22 303 -126 42 -126 125 -298 196 -407 82 -125 272 -313
403 -399 286 -187 660 -296 1016 -295 221 1 337 26 366 81 12 22 -2 93 -40
205 -45 130 -165 314 -296 453 -242 257 -624 457 -1041 545 -133 28 -418 66
-495 66 -60 0 -60 0 -82 175 -28 227 -20 503 24 750 32 183 128 483 180 565
16 25 99 187 184 360 160 322 200 393 228 398 22 4 135 -167 202 -308 61 -129
115 -295 142 -445 23 -126 27 -519 6 -660 -16 -103 -87 -462 -102 -515 -16
-54 -12 -115 7 -131 22 -19 117 -14 328 16 426 60 664 81 955 84 188 2 528
-22 560 -39 14 -7 19 -29 24 -97 9 -105 50 -314 78 -398 74 -216 267 -485 462
-644 217 -177 490 -314 746 -375 180 -42 253 -50 475 -51 245 0 281 4 325 41
37 31 38 59 10 164 -41 147 -166 367 -320 560 -96 121 -306 323 -433 417 -188
139 -393 252 -596 328 -140 52 -382 119 -517 143 l-99 17 2 35 c7 90 82 255
178 388 l35 50 53 -20 c401 -155 874 -145 1212 24 97 49 205 131 288 217 137
144 139 181 15 243 -207 103 -403 145 -623 134 -262 -12 -494 -87 -716 -231
-76 -49 -200 -147 -233 -183 -17 -20 -21 -20 -53 -7 -41 17 -239 145 -303 195
-257 201 -424 382 -535 576 -44 77 -91 201 -80 213 3 3 49 -1 103 -7 465 -60
841 -58 1182 4 283 52 519 127 745 238 225 110 404 243 502 371 45 59 90 154
98 207 7 43 5 49 -21 74 -37 34 -199 112 -333 158 -373 130 -883 172 -1229
102 -35 -7 -65 -9 -68 -5 -2 5 11 39 29 76 56 111 146 347 168 441 18 72 20
109 17 215 -5 143 -19 179 -73 185 -48 6 -285 -29 -374 -54 -494 -144 -909
-482 -1188 -969 -31 -55 -97 -179 -146 -275 -49 -96 -92 -179 -97 -183 -20
-21 -116 399 -130 571 -13 156 -13 536 1 703 14 187 77 509 104 537 7 8 48 18
91 23 206 24 385 61 549 110 536 164 1055 574 1268 1003 56 112 107 264 107
318 0 46 -29 84 -84 111 -152 73 -406 59 -701 -39 -105 -35 -365 -159 -446
-214 -239 -161 -491 -425 -648 -678 -61 -98 -168 -311 -206 -409 -27 -71 -29
-73 -64 -75 -86 -3 -127 15 -230 105 -133 115 -245 302 -276 464 -26 129 -27
127 98 192 59 31 149 85 200 121 114 81 286 251 350 347 199 301 283 674 231
1030 -16 112 -29 144 -66 164 -18 10 -34 5 -112 -35 -106 -54 -195 -122 -320
-244 -156 -154 -234 -259 -321 -432 -131 -261 -215 -589 -215 -840 0 -85 -1
-90 -25 -106 -14 -9 -122 -54 -240 -100 -117 -45 -250 -98 -294 -117 -45 -20
-83 -32 -85 -29 -2 4 -20 66 -39 137 -20 72 -57 189 -82 260 -101 286 -163
544 -189 795 -9 80 -18 162 -21 182 -5 35 -3 39 37 65 302 191 467 346 652
611 164 235 280 524 354 887 50 241 53 493 8 699 -19 92 -28 114 -51 134 -34
29 -51 26 -162 -29 -229 -114 -443 -312 -615 -569 -63 -94 -187 -347 -227
-462 -98 -284 -151 -653 -151 -1063 l0 -155 -27 -11 c-226 -90 -347 -114 -563
-113 -160 0 -182 3 -263 27 -99 31 -203 81 -292 140 -81 54 -235 205 -304 297
-62 83 -141 227 -141 257 0 11 22 32 53 53 80 53 345 325 439 452 272 362 427
727 489 1143 34 233 20 552 -31 719 -17 53 -25 66 -50 76 -40 17 -67 6 -193
-78 -376 -253 -610 -517 -792 -897 -194 -405 -240 -952 -111 -1326 14 -42 26
-80 26 -86 0 -22 -370 -267 -416 -275 -16 -3 -20 8 -30 87 -55 431 -177 788
-349 1016 -77 102 -186 209 -214 209 -26 0 -62 -48 -105 -141 -118 -261 -171
-591 -147 -929 13 -186 33 -295 77 -428 44 -134 71 -190 107 -216 l28 -21 112
39 c89 31 280 106 365 143 17 7 16 -179 -3 -332 -31 -250 -67 -406 -140 -607
-30 -83 -55 -158 -55 -168 0 -27 46 -63 72 -57 305 71 486 97 713 102 205 4
333 -5 490 -36 264 -52 548 -191 688 -337 31 -33 57 -65 57 -71 0 -28 -221
-139 -378 -191 -670 -220 -1503 -136 -2067 209 -124 76 -206 134 -268 190 -28
26 -62 56 -75 67 -35 28 -189 208 -253 294 -194 261 -328 554 -425 927 -34
133 -74 352 -74 408 0 32 34 74 236 291 320 344 472 546 605 799 219 420 343
989 310 1428 -12 167 -28 264 -60 364 l-18 58 -84 3 c-82 2 -85 1 -149 -37z
m139 -118 c23 -86 41 -273 41 -416 0 -401 -92 -793 -275 -1165 -134 -275 -220
-397 -489 -697 -209 -232 -266 -288 -274 -268 -14 36 -7 453 11 603 57 472
180 904 362 1275 109 223 206 357 376 520 83 79 214 185 230 185 5 0 13 -17
18 -37z m2334 -557 c82 -505 -131 -1185 -513 -1641 -113 -135 -383 -395 -396
-382 -15 14 -64 236 -75 334 -20 183 0 410 52 603 97 357 247 617 509 880 58
59 125 123 150 142 76 60 234 168 246 168 6 0 18 -47 27 -104z m-5378 -11
c140 -58 400 -294 517 -470 151 -226 255 -508 305 -825 27 -176 25 -626 -4
-805 -23 -138 -98 -444 -113 -459 -20 -20 -236 186 -351 334 -207 266 -339
532 -423 850 -103 389 -122 893 -49 1267 15 82 39 123 69 123 8 0 30 -7 49
-15z m7195 -672 c21 -88 24 -375 6 -503 -56 -381 -204 -751 -409 -1025 -91
-121 -296 -321 -411 -399 -54 -37 -105 -70 -114 -73 -26 -11 -7 468 29 702 25
162 92 390 161 550 110 251 315 518 513 665 81 61 189 128 207 130 3 0 12 -21
18 -47z m-540 -247 c0 -2 -7 -7 -16 -10 -8 -3 -12 -2 -9 4 6 10 25 14 25 6z
m-3201 -442 c141 -189 237 -445 301 -804 10 -58 21 -136 25 -175 3 -38 8 -80
11 -92 4 -19 -5 -27 -58 -54 -104 -52 -385 -165 -393 -157 -2 1 -17 37 -33 78
-95 240 -113 674 -41 1003 28 130 89 297 107 297 5 0 41 -43 81 -96z m-5918
-260 c171 -59 348 -152 524 -273 101 -69 334 -262 401 -333 82 -86 82 -86 67
-170 -20 -107 -28 -465 -14 -582 38 -303 122 -487 266 -582 72 -48 126 -55
189 -24 53 27 86 72 118 162 18 52 22 84 22 178 -1 302 -125 607 -371 913
l-47 58 13 62 c39 187 155 478 225 562 24 30 25 30 41 10 37 -47 142 -230 205
-360 263 -537 337 -1139 240 -1930 -21 -168 -64 -421 -84 -488 l-11 -39 -190
128 c-202 135 -228 154 -368 267 -374 301 -632 589 -872 972 -264 423 -482
1039 -502 1418 l-6 108 29 -12 c16 -6 72 -26 125 -45z m426 -120 c-3 -3 -12
-4 -19 -1 -8 3 -5 6 6 6 11 1 17 -2 13 -5z m6394 -517 c-13 -13 -26 -3 -16 12
3 6 11 8 17 5 6 -4 6 -10 -1 -17z m-34 -13 c-3 -3 -12 -4 -19 -1 -8 3 -5 6 6
6 11 1 17 -2 13 -5z m-397 -144 c0 -5 -4 -10 -10 -10 -5 0 -10 5 -10 10 0 6 5
10 10 10 6 0 10 -4 10 -10z m-5209 -112 c138 -192 218 -378 254 -587 19 -105
14 -179 -16 -277 -24 -77 -38 -91 -78 -74 -95 39 -171 186 -217 416 -27 140
-24 584 5 584 4 0 28 -28 52 -62z m9443 -125 c8 -147 0 -225 -36 -378 -34
-144 -99 -299 -171 -405 -31 -46 -157 -197 -179 -215 -161 -134 -382 -277
-390 -253 -6 17 10 176 28 278 41 237 136 479 257 660 62 92 159 214 206 259
76 71 243 191 267 191 8 0 14 -47 18 -137z m-11866 -459 c258 -48 409 -97 610
-198 181 -90 303 -176 475 -334 242 -220 449 -545 598 -934 40 -107 139 -412
139 -432 0 -7 -37 0 -205 39 -405 96 -746 253 -1057 488 -279 209 -491 455
-680 786 -124 219 -192 395 -205 535 -5 50 -3 61 13 73 25 19 131 11 312 -23z
m5258 -193 c77 -52 209 -163 307 -259 198 -193 343 -434 429 -711 58 -188 88
-480 70 -692 -11 -131 -46 -361 -58 -381 -4 -5 -13 -4 -22 5 -10 8 -44 29 -77
47 -168 93 -361 266 -472 424 -65 91 -161 272 -208 390 -112 284 -139 721 -69
1106 19 103 21 110 33 110 5 0 35 -18 67 -39z m-3619 -33 c-3 -8 -6 -5 -6 6
-1 11 2 17 5 13 3 -3 4 -12 1 -19z m11936 -119 c31 -7 57 -16 57 -22 0 -20
-93 -243 -126 -303 -68 -124 -276 -353 -445 -491 -320 -260 -752 -434 -1208
-488 l-54 -6 7 33 c19 100 223 441 369 618 275 334 650 567 1046 650 99 21
271 25 354 9z m-518 -19 c3 -5 1 -10 -4 -10 -6 0 -11 5 -11 10 0 6 2 10 4 10
3 0 8 -4 11 -10z m-9915 -918 c0 -12 -3 -12 -15 -2 -8 7 -15 13 -15 15 0 1 7
2 15 2 8 0 15 -7 15 -15z m0 -52 c0 -11 -4 -20 -9 -20 -5 0 -7 9 -4 20 3 11 7
20 9 20 2 0 4 -9 4 -20z m7108 -192 c56 -281 66 -379 66 -658 1 -287 -11 -387
-69 -591 -85 -293 -284 -601 -514 -793 -97 -81 -93 -82 -144 44 -106 256 -151
617 -113 895 52 376 121 569 292 826 78 117 245 295 355 378 44 33 84 61 88
61 4 0 21 -73 39 -162z m1512 -98 c0 -5 -2 -10 -4 -10 -3 0 -8 5 -11 10 -3 6
-1 10 4 10 6 0 11 -4 11 -10z m-1900 -20 c0 -5 -4 -10 -10 -10 -5 0 -10 5 -10
10 0 6 5 10 10 10 6 0 10 -4 10 -10z m1920 -20 c0 -5 -2 -10 -4 -10 -3 0 -8 5
-11 10 -3 6 -1 10 4 10 6 0 11 -4 11 -10z m-1980 -50 c0 -5 -5 -10 -11 -10 -5
0 -7 5 -4 10 3 6 8 10 11 10 2 0 4 -4 4 -10z m-1509 -637 c22 -108 24 -141 24
-378 0 -240 -3 -271 -28 -410 -76 -415 -153 -657 -317 -999 -149 -309 -295
-521 -505 -732 -208 -209 -378 -325 -625 -427 -97 -40 -213 -77 -241 -77 -32
0 -196 222 -253 342 -42 90 -92 252 -120 385 -66 315 -57 624 29 1013 68 306
157 520 301 726 42 60 78 111 81 114 9 9 92 -94 170 -209 79 -119 155 -268
194 -381 l22 -66 -46 -114 c-94 -235 -137 -426 -144 -652 -6 -185 3 -275 43
-390 63 -186 144 -245 249 -183 120 70 196 278 196 535 0 170 -55 488 -122
703 l-30 98 81 156 c122 232 188 336 314 493 125 157 346 366 481 457 83 56
187 113 206 113 11 0 21 -28 40 -117z m-3653 -3 c308 -349 459 -795 439 -1300
-6 -154 -41 -376 -77 -495 -33 -106 -111 -262 -177 -350 -65 -87 -179 -193
-192 -179 -17 18 -134 228 -166 298 -39 85 -98 251 -126 356 -61 232 -84 434
-76 675 13 363 82 680 206 950 47 101 67 135 81 135 5 0 45 -40 88 -90z
m-4099 34 c106 -65 193 -137 320 -270 240 -249 346 -410 471 -714 95 -232 143
-440 155 -667 12 -240 15 -643 5 -643 -28 0 -199 104 -320 194 -407 305 -672
764 -755 1313 -21 133 -30 446 -17 559 11 94 50 274 59 274 3 0 40 -21 82 -46z
m-1987 -67 c153 -110 241 -183 350 -294 140 -141 247 -276 351 -443 205 -330
321 -603 417 -975 58 -227 122 -575 105 -575 -4 0 -40 16 -81 36 -88 42 -172
56 -255 43 -67 -11 -104 -24 -274 -102 -273 -123 -461 -173 -720 -192 -112 -8
-371 10 -490 34 -86 18 -280 83 -299 102 -14 13 32 58 151 147 200 151 341
220 568 276 163 40 272 53 450 55 171 2 185 6 185 55 0 12 -50 90 -110 175
-107 149 -189 280 -243 388 -32 63 -117 274 -145 363 -80 245 -112 576 -82
835 12 109 18 135 28 135 4 0 46 -28 94 -63z m4577 -354 c60 -230 66 -281 66
-548 0 -256 -10 -353 -62 -585 -24 -110 -110 -390 -119 -390 -3 0 -19 17 -37
37 -18 21 -59 67 -91 103 -165 182 -330 409 -407 559 l-42 83 42 85 c72 145
243 367 387 502 80 75 228 191 244 191 5 0 14 -17 19 -37z m3799 -248 c-3 -3
-9 2 -12 12 -6 14 -5 15 5 6 7 -7 10 -15 7 -18z m472 1 c0 -8 -4 -18 -10 -21
-5 -3 -10 3 -10 14 0 12 5 21 10 21 6 0 10 -6 10 -14z m5897 -71 c0 -8 -4 -15
-9 -15 -10 0 -11 14 -1 23 9 10 10 9 10 -8z m-10690 -101 c-3 -3 -12 -4 -19
-1 -8 3 -5 6 6 6 11 1 17 -2 13 -5z m10513 -124 c0 -33 -142 -211 -252 -316
-145 -138 -276 -203 -352 -175 -37 15 -33 37 19 111 112 162 270 277 491 360
90 33 94 34 94 20z m-10640 -16 c0 -8 -4 -12 -10 -9 -5 3 -10 10 -10 16 0 5 5
9 10 9 6 0 10 -7 10 -16z m10220 -158 c0 -3 -4 -8 -10 -11 -5 -3 -10 -1 -10 4
0 6 5 11 10 11 6 0 10 -2 10 -4z m-35 -16 c3 -6 -1 -7 -9 -4 -18 7 -21 14 -7
14 6 0 13 -4 16 -10z m2175 -110 c0 -5 -5 -10 -11 -10 -5 0 -7 5 -4 10 3 6 8
10 11 10 2 0 4 -4 4 -10z m-1870 -70 c0 -5 -2 -10 -4 -10 -3 0 -8 5 -11 10 -3
6 -1 10 4 10 6 0 11 -4 11 -10z m-5848 -146 c92 -432 90 -585 -9 -796 -48
-103 -62 -102 -103 2 -65 167 -67 445 -5 693 32 129 69 237 79 234 5 -2 22
-62 38 -133z m-6467 -134 c3 -5 1 -10 -4 -10 -6 0 -11 5 -11 10 0 6 2 10 4 10
3 0 8 -4 11 -10z m2479 -285 c-4 -8 -8 -15 -10 -15 -2 0 -4 7 -4 15 0 8 4 15
10 15 5 0 7 -7 4 -15z m1269 -150 c-3 -9 -8 -14 -10 -11 -3 3 -2 9 2 15 9 16
15 13 8 -4z m-1153 -297 c49 -39 171 -116 265 -167 69 -38 288 -112 390 -132
92 -18 330 -18 420 0 84 17 199 55 233 77 13 8 30 13 37 10 7 -2 40 -40 73
-83 132 -173 338 -337 554 -442 189 -90 337 -134 573 -166 167 -24 461 -16
632 16 l121 22 64 -57 c139 -127 299 -223 541 -325 59 -25 60 -24 -63 -154
-380 -401 -868 -488 -1657 -297 -245 60 -512 147 -753 245 -103 42 -562 270
-653 323 -45 27 -109 64 -142 82 -222 122 -567 387 -754 579 -74 76 -197 225
-216 261 -22 42 -20 50 31 147 26 49 62 119 81 156 l34 69 72 -64 c40 -35 92
-80 117 -100z m-1280 -192 c0 -3 -4 -8 -10 -11 -5 -3 -10 -1 -10 4 0 6 5 11
10 11 6 0 10 -2 10 -4z m52 -12 c-5 -10 -23 -7 -37 7 -6 6 -1 8 15 6 14 -2 23
-8 22 -13z m48 -4 c12 -8 11 -10 -7 -10 -13 0 -23 5 -23 10 0 13 11 13 30 0z
m50 -16 c0 -2 -7 -4 -15 -4 -8 0 -15 4 -15 10 0 5 7 7 15 4 8 -4 15 -8 15 -10z
m2380 6 c0 -5 -5 -10 -11 -10 -5 0 -7 5 -4 10 3 6 8 10 11 10 2 0 4 -4 4 -10z
m10168 -26 c42 -8 108 -29 147 -45 38 -16 75 -29 81 -29 66 0 -117 -175 -256
-245 -94 -48 -275 -101 -394 -115 -130 -17 -351 -7 -471 20 -96 22 -215 58
-228 70 -13 12 212 174 309 223 129 65 281 115 398 132 120 17 301 12 414 -11z
m-5591 -159 c67 -8 128 -17 135 -19 7 -2 25 -7 41 -10 15 -4 27 -11 27 -16 0
-34 -171 -277 -261 -371 -152 -160 -419 -323 -619 -379 -229 -64 -553 -67
-839 -10 -52 10 -98 23 -104 29 -12 12 80 126 204 250 92 91 256 221 372 295
68 43 230 124 307 154 216 83 471 110 737 77z m-9302 -435 c3 -5 1 -10 -4 -10
-6 0 -11 5 -11 10 0 6 2 10 4 10 3 0 8 -4 11 -10z m-75 -170 c0 -45 -85 -273
-150 -405 -110 -222 -260 -408 -472 -586 -253 -212 -441 -314 -744 -403 -195
-58 -330 -77 -576 -83 l-218 -6 0 23 c0 40 31 142 61 202 99 195 423 531 699
724 387 270 842 458 1315 543 78 14 85 13 85 -9z m13693 -325 c516 -120 893
-325 1217 -661 158 -164 265 -308 358 -484 64 -122 92 -207 72 -221 -23 -14
-303 -10 -425 6 -249 33 -480 114 -698 245 -32 19 -40 21 -48 9 -8 -11 -9 -11
-7 2 2 11 -21 35 -62 65 -94 70 -264 238 -326 321 -122 165 -205 354 -239 547
-19 110 -20 206 -2 206 6 0 78 -16 160 -35z m-11993 -133 c0 -42 -53 -292 -90
-422 -141 -498 -360 -877 -712 -1234 -64 -65 -123 -116 -130 -114 -32 11 -74
209 -89 423 -12 166 -6 464 11 602 28 223 113 440 209 541 77 79 212 122 611
192 193 34 190 34 190 12z m2014 -43 c-6 -11 -24 -2 -24 11 0 5 7 7 15 4 8 -4
12 -10 9 -15z m7261 -165 c185 -27 307 -55 463 -106 487 -160 851 -472 993
-850 18 -49 30 -91 26 -94 -4 -4 -69 -9 -146 -12 -463 -16 -927 152 -1211 438
-118 118 -206 242 -275 385 -52 107 -105 237 -105 258 0 11 99 4 255 -19z
m772 -180 c-3 -3 -12 -4 -19 -1 -8 3 -5 6 6 6 11 1 17 -2 13 -5z m-10747
-1204 c0 -5 -5 -10 -11 -10 -5 0 -7 5 -4 10 3 6 8 10 11 10 2 0 4 -4 4 -10z
m4960 -4410 c0 -5 -4 -10 -10 -10 -5 0 -10 5 -10 10 0 6 5 10 10 10 6 0 10 -4
10 -10z"/>
<path d="M20290 6223 c-134 -11 -328 -62 -431 -114 -162 -81 -349 -266 -423
-419 -17 -34 -17 -34 1 -14 10 12 40 49 67 83 98 122 264 244 422 308 151 61
263 85 404 86 133 0 185 -9 290 -50 188 -75 303 -199 360 -391 19 -61 21 -90
18 -185 -4 -94 -10 -127 -36 -201 -85 -239 -229 -395 -478 -520 -258 -129
-522 -194 -884 -217 -275 -17 -469 -5 -846 56 -256 41 -391 71 -823 181 -651
166 -998 227 -1439 254 -703 42 -1259 -145 -1650 -555 -241 -252 -387 -565
-410 -880 l-7 -90 -100 -11 c-507 -60 -980 -407 -1182 -867 -88 -198 -125
-381 -124 -612 1 -397 166 -750 465 -994 253 -207 597 -344 978 -391 98 -12
367 -15 443 -5 280 37 474 85 663 164 140 59 181 81 332 182 261 173 431 325
694 619 208 233 334 401 533 710 87 135 311 507 385 640 110 197 349 581 513
825 180 267 292 411 425 545 167 169 218 213 245 206 66 -17 335 -58 500 -78
251 -29 688 -32 898 -5 302 38 525 114 735 250 269 174 429 476 409 772 -13
181 -65 308 -178 429 -140 150 -310 238 -537 276 -110 19 -135 21 -232 13z
m-136 -51 c3 -5 -1 -9 -9 -9 -8 0 -15 4 -15 9 0 4 4 8 9 8 6 0 12 -4 15 -8z
m-4504 -1242 c0 -5 -4 -10 -9 -10 -6 0 -13 5 -16 10 -3 6 1 10 9 10 9 0 16 -4
16 -10z m1255 -15 c256 -13 523 -61 985 -175 173 -43 385 -92 470 -111 85 -18
159 -36 163 -40 5 -3 -27 -29 -70 -55 -115 -72 -204 -147 -334 -280 -188 -192
-230 -242 -449 -534 -168 -223 -303 -421 -792 -1160 -86 -129 -202 -298 -257
-375 -56 -77 -99 -145 -96 -152 2 -7 0 -12 -5 -10 -4 1 -92 -102 -194 -230
-340 -423 -604 -668 -916 -849 -321 -187 -764 -241 -1176 -144 -302 71 -594
276 -761 533 -32 48 -59 83 -61 77 -2 -5 -8 -7 -14 -4 -6 4 -6 9 3 14 9 6 4
26 -24 85 -44 90 -79 212 -103 350 -23 134 -15 387 15 530 85 389 266 672 561
874 98 67 139 89 253 135 73 29 207 66 293 80 l31 5 7 -64 c23 -228 157 -486
331 -640 162 -144 378 -249 585 -286 95 -16 309 -14 419 6 192 33 385 115 554
236 209 149 441 428 523 630 46 114 26 111 -56 -5 -181 -259 -312 -407 -460
-518 -243 -183 -525 -288 -773 -288 -153 0 -356 54 -497 132 -54 30 -171 114
-221 160 -91 83 -190 253 -224 388 -16 64 -35 237 -26 245 11 11 108 3 189
-15 137 -31 258 -83 377 -163 80 -54 213 -187 260 -262 51 -79 57 -54 8 36
-89 167 -260 321 -442 398 -92 39 -243 80 -318 87 -83 8 -80 2 -57 107 65 286
234 551 491 768 340 286 851 461 1423 487 162 8 190 8 385 -3z m-2222 -650
c-3 -9 -8 -14 -10 -11 -3 3 -2 9 2 15 9 16 15 13 8 -4z m3497 -5 c0 -5 -2 -10
-4 -10 -3 0 -8 5 -11 10 -3 6 -1 10 4 10 6 0 11 -4 11 -10z m-3555 -731 c11
-16 1 -19 -13 -3 -7 8 -8 14 -3 14 5 0 13 -5 16 -11z m-115 -100 c0 -6 -4 -7
-10 -4 -5 3 -10 11 -10 16 0 6 5 7 10 4 6 -3 10 -11 10 -16z m-1180 -1869 c0
-5 -2 -10 -4 -10 -3 0 -8 5 -11 10 -3 6 -1 10 4 10 6 0 11 -4 11 -10z m-130
-100 c0 -5 -2 -10 -4 -10 -3 0 -8 5 -11 10 -3 6 -1 10 4 10 6 0 11 -4 11 -10z
m200 -80 c0 -5 -2 -10 -4 -10 -3 0 -8 5 -11 10 -3 6 -1 10 4 10 6 0 11 -4 11
-10z m-90 -92 c0 -18 -2 -20 -9 -8 -6 8 -7 18 -5 22 9 14 14 9 14 -14z m664
-429 c3 -3 -4 -5 -14 -6 -11 -1 -20 2 -20 7 0 8 25 8 34 -1z"/>
<path d="M7605 6109 c-229 -18 -547 -88 -743 -165 -285 -111 -507 -250 -682
-426 -294 -297 -430 -613 -417 -968 14 -368 183 -621 532 -795 204 -102 390
-141 624 -132 168 6 252 22 389 73 308 115 556 307 727 564 74 112 167 290
151 290 -2 0 -32 -45 -66 -101 -118 -191 -315 -400 -482 -510 -115 -76 -280
-159 -373 -187 -101 -31 -294 -62 -388 -62 -95 0 -243 22 -338 50 -91 27 -253
109 -320 161 -155 122 -246 268 -285 459 -41 205 20 481 158 715 53 89 87 134
163 213 320 336 825 553 1465 631 151 18 541 33 690 26 532 -24 916 -101 1340
-265 58 -23 131 -51 162 -63 32 -12 58 -26 58 -32 0 -5 -40 -36 -88 -67 -415
-269 -789 -698 -1357 -1555 -121 -183 -285 -434 -365 -558 -186 -288 -368
-563 -402 -606 -30 -39 -23 -41 -124 44 -329 280 -837 476 -1340 518 -198 16
-554 7 -724 -20 -442 -68 -845 -235 -1157 -478 -230 -179 -407 -399 -524 -650
-145 -309 -122 -635 61 -903 164 -239 498 -445 832 -514 321 -66 707 -61 1028
15 219 52 370 106 586 209 419 200 744 461 1130 905 76 87 232 286 304 385 29
41 57 79 62 84 12 14 45 -69 73 -185 39 -160 33 -349 -16 -514 -27 -88 -91
-223 -163 -342 -55 -89 -65 -113 -47 -113 12 0 89 92 138 165 196 291 238 676
109 977 -20 46 -36 88 -36 93 0 5 35 63 79 130 95 144 293 470 421 690 51 88
132 228 180 310 48 83 131 227 185 320 54 94 129 218 166 278 38 59 69 110 69
112 0 9 174 274 318 485 167 244 366 471 565 643 12 10 36 31 52 45 17 15 49
42 73 60 23 19 42 37 42 41 0 28 -388 196 -642 277 -262 84 -414 120 -758 178
-403 69 -762 90 -1095 65z m-918 -275 c-3 -3 -12 -4 -19 -1 -8 3 -5 6 6 6 11
1 17 -2 13 -5z m-242 -2599 c151 -20 439 -91 570 -140 261 -97 452 -208 619
-359 l49 -45 -129 -173 c-426 -570 -778 -923 -1214 -1213 -273 -182 -573 -315
-847 -375 -573 -125 -1089 -3 -1409 332 -156 163 -223 340 -211 558 16 270
123 483 367 730 159 161 324 283 509 375 477 237 904 339 1381 330 107 -2 249
-11 315 -20z m630 -94 c3 -6 -4 -9 -15 -8 -11 1 -20 5 -20 9 0 11 28 10 35 -1z
m749 -327 c9 -24 7 -27 -9 -10 -17 17 -19 26 -6 26 5 0 12 -7 15 -16z m286
-35 c0 -5 -4 -9 -8 -9 -5 0 -9 7 -9 15 0 8 4 12 9 9 4 -3 8 -9 8 -15z m-1030
-1269 c0 -5 -2 -10 -4 -10 -3 0 -8 5 -11 10 -3 6 -1 10 4 10 6 0 11 -4 11 -10z"/>
</g>
</svg>
